<mxfile host="app.diagrams.net" modified="2020-06-20T14:10:53.251Z" agent="5.0 (Windows NT 10.0; Win64; x64) AppleWebKit/537.36 (KHTML, like Gecko) Chrome/83.0.4103.106 Safari/537.36" etag="Mk_zhT8ZAtpECpVc09tj" version="13.3.0" type="github">
  <diagram id="9gEZrDbee1CZRMEXm1SG" name="Page-1">
    <mxGraphModel dx="1278" dy="1112" grid="1" gridSize="10" guides="1" tooltips="1" connect="1" arrows="1" fold="1" page="1" pageScale="1" pageWidth="850" pageHeight="1100" math="0" shadow="0">
      <root>
        <mxCell id="0" />
        <mxCell id="1" parent="0" />
        <mxCell id="U9adozjTh0LEUF88zTxM-1" value="" style="rounded=0;whiteSpace=wrap;html=1;strokeColor=none;" parent="1" vertex="1">
          <mxGeometry x="425" y="100" width="925" height="650" as="geometry" />
        </mxCell>
        <mxCell id="U9adozjTh0LEUF88zTxM-4" value="" style="line;strokeWidth=2;html=1;perimeter=backbonePerimeter;points=[];outlineConnect=0;fillColor=#1ba1e2;strokeColor=#006EAF;fontColor=#ffffff;" parent="1" vertex="1">
          <mxGeometry x="425" y="190" width="925" height="10" as="geometry" />
        </mxCell>
        <mxCell id="U9adozjTh0LEUF88zTxM-5" value="&lt;i&gt;&lt;font style=&quot;font-size: 30px&quot;&gt;UI&lt;/font&gt;&lt;/i&gt;" style="text;html=1;strokeColor=none;fillColor=none;align=center;verticalAlign=middle;whiteSpace=wrap;rounded=0;fontStyle=1" parent="1" vertex="1">
          <mxGeometry x="470" y="140" width="40" height="20" as="geometry" />
        </mxCell>
        <mxCell id="U9adozjTh0LEUF88zTxM-6" value="&lt;i&gt;&lt;font style=&quot;font-size: 30px&quot;&gt;SDK&lt;/font&gt;&lt;/i&gt;" style="text;html=1;strokeColor=none;fillColor=none;align=center;verticalAlign=middle;whiteSpace=wrap;rounded=0;fontStyle=1" parent="1" vertex="1">
          <mxGeometry x="470" y="450" width="40" height="20" as="geometry" />
        </mxCell>
        <mxCell id="U9adozjTh0LEUF88zTxM-7" value="&lt;i&gt;&lt;font style=&quot;font-size: 30px&quot;&gt;SERVER&lt;/font&gt;&lt;/i&gt;" style="text;html=1;strokeColor=none;fillColor=none;align=center;verticalAlign=middle;whiteSpace=wrap;rounded=0;fontStyle=1" parent="1" vertex="1">
          <mxGeometry x="470" y="670" width="40" height="20" as="geometry" />
        </mxCell>
        <mxCell id="U9adozjTh0LEUF88zTxM-8" value="" style="line;strokeWidth=2;html=1;perimeter=backbonePerimeter;points=[];outlineConnect=0;fillColor=#1ba1e2;strokeColor=#006EAF;fontColor=#ffffff;shadow=0;" parent="1" vertex="1">
          <mxGeometry x="425" y="620" width="935" height="10" as="geometry" />
        </mxCell>
        <mxCell id="5U1FeXSIEjCZmz01g3kU-1" value="&lt;font style=&quot;font-size: 14px&quot;&gt;&lt;b&gt;Byteview Core Service&lt;/b&gt;&lt;/font&gt;" style="rounded=0;whiteSpace=wrap;html=1;fillColor=#e1d5e7;strokeColor=#9673a6;" parent="1" vertex="1">
          <mxGeometry x="587" y="660" width="430" height="40" as="geometry" />
        </mxCell>
        <mxCell id="5U1FeXSIEjCZmz01g3kU-6" value="" style="edgeStyle=orthogonalEdgeStyle;rounded=0;orthogonalLoop=1;jettySize=auto;html=1;strokeWidth=2;" parent="1" source="5U1FeXSIEjCZmz01g3kU-2" target="5U1FeXSIEjCZmz01g3kU-5" edge="1">
          <mxGeometry relative="1" as="geometry" />
        </mxCell>
        <mxCell id="5U1FeXSIEjCZmz01g3kU-46" value="" style="edgeStyle=orthogonalEdgeStyle;rounded=0;jumpStyle=arc;orthogonalLoop=1;jettySize=auto;html=1;strokeWidth=2;" parent="1" source="5U1FeXSIEjCZmz01g3kU-2" target="5U1FeXSIEjCZmz01g3kU-45" edge="1">
          <mxGeometry relative="1" as="geometry" />
        </mxCell>
        <mxCell id="5U1FeXSIEjCZmz01g3kU-2" value="&lt;span style=&quot;font-size: 14px&quot;&gt;&lt;b&gt;Websocekt&lt;/b&gt;&lt;/span&gt;" style="rounded=0;whiteSpace=wrap;html=1;fillColor=#dae8fc;strokeColor=#6c8ebf;" parent="1" vertex="1">
          <mxGeometry x="587" y="540" width="120" height="40" as="geometry" />
        </mxCell>
        <mxCell id="5U1FeXSIEjCZmz01g3kU-51" style="edgeStyle=orthogonalEdgeStyle;rounded=0;jumpStyle=arc;orthogonalLoop=1;jettySize=auto;html=1;exitX=0.5;exitY=1;exitDx=0;exitDy=0;strokeWidth=2;startArrow=classic;startFill=1;" parent="1" source="5U1FeXSIEjCZmz01g3kU-45" edge="1">
          <mxGeometry relative="1" as="geometry">
            <mxPoint x="867" y="659" as="targetPoint" />
            <Array as="points">
              <mxPoint x="867" y="659" />
            </Array>
          </mxGeometry>
        </mxCell>
        <mxCell id="5U1FeXSIEjCZmz01g3kU-55" style="edgeStyle=orthogonalEdgeStyle;rounded=0;jumpStyle=arc;orthogonalLoop=1;jettySize=auto;html=1;exitX=0.5;exitY=0;exitDx=0;exitDy=0;entryX=0.5;entryY=1;entryDx=0;entryDy=0;startArrow=none;startFill=0;strokeWidth=2;" parent="1" source="5U1FeXSIEjCZmz01g3kU-45" target="5U1FeXSIEjCZmz01g3kU-19" edge="1">
          <mxGeometry relative="1" as="geometry" />
        </mxCell>
        <mxCell id="5U1FeXSIEjCZmz01g3kU-45" value="&lt;span style=&quot;font-size: 14px&quot;&gt;&lt;b&gt;Poll in_meeting_info&lt;/b&gt;&lt;/span&gt;" style="rounded=0;whiteSpace=wrap;html=1;fillColor=#dae8fc;strokeColor=#6c8ebf;" parent="1" vertex="1">
          <mxGeometry x="807" y="540" width="120" height="40" as="geometry" />
        </mxCell>
        <mxCell id="5U1FeXSIEjCZmz01g3kU-11" style="edgeStyle=orthogonalEdgeStyle;rounded=0;jumpStyle=arc;orthogonalLoop=1;jettySize=auto;html=1;exitX=0.5;exitY=0;exitDx=0;exitDy=0;entryX=0.5;entryY=1;entryDx=0;entryDy=0;strokeWidth=2;" parent="1" source="5U1FeXSIEjCZmz01g3kU-5" target="5U1FeXSIEjCZmz01g3kU-10" edge="1">
          <mxGeometry relative="1" as="geometry" />
        </mxCell>
        <mxCell id="5U1FeXSIEjCZmz01g3kU-5" value="&lt;span style=&quot;font-size: 14px&quot;&gt;&lt;b&gt;extra_info&lt;/b&gt;&lt;/span&gt;" style="rounded=0;whiteSpace=wrap;html=1;fillColor=#dae8fc;strokeColor=#6c8ebf;" parent="1" vertex="1">
          <mxGeometry x="587" y="460" width="120" height="40" as="geometry" />
        </mxCell>
        <mxCell id="5U1FeXSIEjCZmz01g3kU-20" value="" style="edgeStyle=orthogonalEdgeStyle;rounded=0;jumpStyle=arc;orthogonalLoop=1;jettySize=auto;html=1;strokeWidth=2;" parent="1" source="5U1FeXSIEjCZmz01g3kU-10" target="5U1FeXSIEjCZmz01g3kU-19" edge="1">
          <mxGeometry relative="1" as="geometry" />
        </mxCell>
        <mxCell id="5U1FeXSIEjCZmz01g3kU-27" style="edgeStyle=orthogonalEdgeStyle;rounded=0;jumpStyle=arc;orthogonalLoop=1;jettySize=auto;html=1;exitX=0.5;exitY=0;exitDx=0;exitDy=0;entryX=0.5;entryY=1;entryDx=0;entryDy=0;strokeWidth=2;" parent="1" source="5U1FeXSIEjCZmz01g3kU-10" target="5U1FeXSIEjCZmz01g3kU-23" edge="1">
          <mxGeometry relative="1" as="geometry" />
        </mxCell>
        <mxCell id="5U1FeXSIEjCZmz01g3kU-10" value="&lt;b&gt;&lt;font style=&quot;font-size: 14px&quot;&gt;Need combine?&lt;/font&gt;&lt;/b&gt;" style="rhombus;whiteSpace=wrap;html=1;shadow=0;fillColor=#fff2cc;strokeColor=#d6b656;" parent="1" vertex="1">
          <mxGeometry x="577" y="370" width="140" height="50" as="geometry" />
        </mxCell>
        <mxCell id="5U1FeXSIEjCZmz01g3kU-34" style="edgeStyle=orthogonalEdgeStyle;rounded=0;jumpStyle=arc;orthogonalLoop=1;jettySize=auto;html=1;exitX=1;exitY=0.5;exitDx=0;exitDy=0;entryX=0;entryY=0.5;entryDx=0;entryDy=0;strokeWidth=2;" parent="1" source="5U1FeXSIEjCZmz01g3kU-19" target="5U1FeXSIEjCZmz01g3kU-26" edge="1">
          <mxGeometry relative="1" as="geometry" />
        </mxCell>
        <mxCell id="5U1FeXSIEjCZmz01g3kU-53" style="edgeStyle=orthogonalEdgeStyle;rounded=0;jumpStyle=arc;orthogonalLoop=1;jettySize=auto;html=1;exitX=0.5;exitY=0;exitDx=0;exitDy=0;entryX=0.5;entryY=1;entryDx=0;entryDy=0;startArrow=classic;startFill=1;strokeWidth=2;" parent="1" source="5U1FeXSIEjCZmz01g3kU-19" target="5U1FeXSIEjCZmz01g3kU-30" edge="1">
          <mxGeometry relative="1" as="geometry" />
        </mxCell>
        <mxCell id="5U1FeXSIEjCZmz01g3kU-19" value="&lt;span style=&quot;font-size: 14px&quot;&gt;&lt;b&gt;In order?&lt;/b&gt;&lt;/span&gt;" style="rhombus;whiteSpace=wrap;html=1;shadow=0;fillColor=#fff2cc;strokeColor=#d6b656;" parent="1" vertex="1">
          <mxGeometry x="797" y="370" width="140" height="50" as="geometry" />
        </mxCell>
        <mxCell id="5U1FeXSIEjCZmz01g3kU-15" value="&lt;b&gt;No&lt;/b&gt;" style="text;html=1;strokeColor=none;fillColor=none;align=center;verticalAlign=middle;whiteSpace=wrap;rounded=0;shadow=0;" parent="1" vertex="1">
          <mxGeometry x="607" y="310" width="40" height="20" as="geometry" />
        </mxCell>
        <mxCell id="5U1FeXSIEjCZmz01g3kU-67" style="edgeStyle=orthogonalEdgeStyle;rounded=0;jumpStyle=arc;orthogonalLoop=1;jettySize=auto;html=1;exitX=0.5;exitY=0;exitDx=0;exitDy=0;entryX=0.5;entryY=1;entryDx=0;entryDy=0;startArrow=none;startFill=0;strokeWidth=2;" parent="1" source="5U1FeXSIEjCZmz01g3kU-23" target="5U1FeXSIEjCZmz01g3kU-66" edge="1">
          <mxGeometry relative="1" as="geometry" />
        </mxCell>
        <mxCell id="5U1FeXSIEjCZmz01g3kU-23" value="&lt;span style=&quot;font-size: 14px&quot;&gt;&lt;b&gt;Push extra_info&lt;/b&gt;&lt;/span&gt;" style="rounded=0;whiteSpace=wrap;html=1;fillColor=#dae8fc;strokeColor=#6c8ebf;" parent="1" vertex="1">
          <mxGeometry x="587" y="220" width="120" height="40" as="geometry" />
        </mxCell>
        <mxCell id="5U1FeXSIEjCZmz01g3kU-38" style="edgeStyle=orthogonalEdgeStyle;rounded=0;jumpStyle=arc;orthogonalLoop=1;jettySize=auto;html=1;exitX=0.5;exitY=0;exitDx=0;exitDy=0;entryX=0.5;entryY=1;entryDx=0;entryDy=0;strokeWidth=2;" parent="1" source="5U1FeXSIEjCZmz01g3kU-26" target="5U1FeXSIEjCZmz01g3kU-37" edge="1">
          <mxGeometry relative="1" as="geometry" />
        </mxCell>
        <mxCell id="5U1FeXSIEjCZmz01g3kU-26" value="&lt;span style=&quot;font-size: 14px&quot;&gt;&lt;b&gt;Combined in_meeting_info&lt;/b&gt;&lt;/span&gt;" style="rounded=0;whiteSpace=wrap;html=1;fillColor=#dae8fc;strokeColor=#6c8ebf;" parent="1" vertex="1">
          <mxGeometry x="1017" y="375" width="120" height="40" as="geometry" />
        </mxCell>
        <mxCell id="5U1FeXSIEjCZmz01g3kU-64" value="" style="edgeStyle=orthogonalEdgeStyle;rounded=0;jumpStyle=arc;orthogonalLoop=1;jettySize=auto;html=1;startArrow=none;startFill=0;strokeWidth=2;" parent="1" source="5U1FeXSIEjCZmz01g3kU-35" edge="1">
          <mxGeometry relative="1" as="geometry">
            <mxPoint x="947" y="170" as="targetPoint" />
          </mxGeometry>
        </mxCell>
        <mxCell id="5U1FeXSIEjCZmz01g3kU-35" value="&lt;span style=&quot;font-size: 14px&quot;&gt;&lt;b&gt;Push combined_info&lt;/b&gt;&lt;/span&gt;" style="rounded=0;whiteSpace=wrap;html=1;fillColor=#dae8fc;strokeColor=#6c8ebf;" parent="1" vertex="1">
          <mxGeometry x="887" y="220" width="120" height="40" as="geometry" />
        </mxCell>
        <mxCell id="5U1FeXSIEjCZmz01g3kU-30" value="&lt;span style=&quot;font-size: 14px&quot;&gt;&lt;b&gt;Drop&lt;/b&gt;&lt;/span&gt;" style="rounded=0;whiteSpace=wrap;html=1;fillColor=#f8cecc;strokeColor=#b85450;" parent="1" vertex="1">
          <mxGeometry x="827" y="280" width="80" height="40" as="geometry" />
        </mxCell>
        <mxCell id="5U1FeXSIEjCZmz01g3kU-39" style="edgeStyle=orthogonalEdgeStyle;rounded=0;jumpStyle=arc;orthogonalLoop=1;jettySize=auto;html=1;exitX=0;exitY=0.5;exitDx=0;exitDy=0;entryX=0.5;entryY=1;entryDx=0;entryDy=0;strokeWidth=2;" parent="1" source="5U1FeXSIEjCZmz01g3kU-37" target="5U1FeXSIEjCZmz01g3kU-35" edge="1">
          <mxGeometry relative="1" as="geometry" />
        </mxCell>
        <mxCell id="5U1FeXSIEjCZmz01g3kU-41" style="edgeStyle=orthogonalEdgeStyle;rounded=0;jumpStyle=arc;orthogonalLoop=1;jettySize=auto;html=1;exitX=1;exitY=0.5;exitDx=0;exitDy=0;entryX=0.5;entryY=1;entryDx=0;entryDy=0;strokeWidth=2;" parent="1" source="5U1FeXSIEjCZmz01g3kU-37" target="5U1FeXSIEjCZmz01g3kU-40" edge="1">
          <mxGeometry relative="1" as="geometry" />
        </mxCell>
        <mxCell id="5U1FeXSIEjCZmz01g3kU-37" value="&lt;span style=&quot;font-size: 14px&quot;&gt;&lt;b&gt;Only participant changed?&lt;/b&gt;&lt;/span&gt;" style="rhombus;whiteSpace=wrap;html=1;shadow=0;fillColor=#fff2cc;strokeColor=#d6b656;" parent="1" vertex="1">
          <mxGeometry x="1007" y="290" width="140" height="50" as="geometry" />
        </mxCell>
        <mxCell id="5U1FeXSIEjCZmz01g3kU-62" value="" style="edgeStyle=orthogonalEdgeStyle;rounded=0;jumpStyle=arc;orthogonalLoop=1;jettySize=auto;html=1;startArrow=none;startFill=0;strokeWidth=2;" parent="1" source="5U1FeXSIEjCZmz01g3kU-40" target="5U1FeXSIEjCZmz01g3kU-61" edge="1">
          <mxGeometry relative="1" as="geometry" />
        </mxCell>
        <mxCell id="5U1FeXSIEjCZmz01g3kU-40" value="&lt;span style=&quot;font-size: 14px&quot;&gt;&lt;b&gt;Push particihant_changed&lt;/b&gt;&lt;/span&gt;" style="rounded=0;whiteSpace=wrap;html=1;fillColor=#dae8fc;strokeColor=#6c8ebf;" parent="1" vertex="1">
          <mxGeometry x="1137" y="220" width="160" height="40" as="geometry" />
        </mxCell>
        <mxCell id="5U1FeXSIEjCZmz01g3kU-61" value="&lt;span style=&quot;font-size: 14px&quot;&gt;&lt;b&gt;Update participants&lt;/b&gt;&lt;/span&gt;" style="rounded=0;whiteSpace=wrap;html=1;fillColor=#d5e8d4;strokeColor=#82b366;" parent="1" vertex="1">
          <mxGeometry x="1137" y="130" width="163" height="40" as="geometry" />
        </mxCell>
        <mxCell id="5U1FeXSIEjCZmz01g3kU-42" value="&lt;b&gt;Yes&lt;/b&gt;" style="text;html=1;strokeColor=none;fillColor=none;align=center;verticalAlign=middle;whiteSpace=wrap;rounded=0;shadow=0;" parent="1" vertex="1">
          <mxGeometry x="728.5" y="370" width="40" height="20" as="geometry" />
        </mxCell>
        <mxCell id="5U1FeXSIEjCZmz01g3kU-43" value="&lt;b&gt;No&lt;/b&gt;" style="text;html=1;strokeColor=none;fillColor=none;align=center;verticalAlign=middle;whiteSpace=wrap;rounded=0;shadow=0;" parent="1" vertex="1">
          <mxGeometry x="957" y="290" width="40" height="20" as="geometry" />
        </mxCell>
        <mxCell id="5U1FeXSIEjCZmz01g3kU-44" value="&lt;b&gt;Yes&lt;/b&gt;" style="text;html=1;strokeColor=none;fillColor=none;align=center;verticalAlign=middle;whiteSpace=wrap;rounded=0;shadow=0;" parent="1" vertex="1">
          <mxGeometry x="1157" y="290" width="40" height="20" as="geometry" />
        </mxCell>
        <mxCell id="5U1FeXSIEjCZmz01g3kU-47" value="&lt;b&gt;Close&lt;/b&gt;" style="text;html=1;strokeColor=none;fillColor=none;align=center;verticalAlign=middle;whiteSpace=wrap;rounded=0;shadow=0;" parent="1" vertex="1">
          <mxGeometry x="728.5" y="540" width="40" height="20" as="geometry" />
        </mxCell>
        <mxCell id="5U1FeXSIEjCZmz01g3kU-48" value="" style="endArrow=classic;html=1;strokeWidth=2;entryX=0.5;entryY=1;entryDx=0;entryDy=0;" parent="1" edge="1">
          <mxGeometry width="50" height="50" relative="1" as="geometry">
            <mxPoint x="647" y="660" as="sourcePoint" />
            <mxPoint x="647" y="580" as="targetPoint" />
          </mxGeometry>
        </mxCell>
        <mxCell id="5U1FeXSIEjCZmz01g3kU-54" value="&lt;b&gt;No&lt;/b&gt;" style="text;html=1;strokeColor=none;fillColor=none;align=center;verticalAlign=middle;whiteSpace=wrap;rounded=0;shadow=0;" parent="1" vertex="1">
          <mxGeometry x="827" y="330" width="40" height="20" as="geometry" />
        </mxCell>
        <mxCell id="5U1FeXSIEjCZmz01g3kU-65" value="&lt;span style=&quot;font-size: 14px&quot;&gt;&lt;b&gt;Update in_meeting_info&lt;/b&gt;&lt;/span&gt;" style="rounded=0;whiteSpace=wrap;html=1;fillColor=#d5e8d4;strokeColor=#82b366;" parent="1" vertex="1">
          <mxGeometry x="865.5" y="130" width="163" height="40" as="geometry" />
        </mxCell>
        <mxCell id="5U1FeXSIEjCZmz01g3kU-66" value="&lt;span style=&quot;font-size: 14px&quot;&gt;&lt;b&gt;Toast / Subtitles&lt;/b&gt;&lt;/span&gt;" style="rounded=0;whiteSpace=wrap;html=1;fillColor=#d5e8d4;strokeColor=#82b366;" parent="1" vertex="1">
          <mxGeometry x="565.5" y="130" width="163" height="40" as="geometry" />
        </mxCell>
        <mxCell id="X9Wqag-6pl7K5btb5upP-2" value="&lt;b&gt;Yes&lt;/b&gt;" style="text;html=1;strokeColor=none;fillColor=none;align=center;verticalAlign=middle;whiteSpace=wrap;rounded=0;shadow=0;" vertex="1" parent="1">
          <mxGeometry x="950" y="375" width="40" height="20" as="geometry" />
        </mxCell>
      </root>
    </mxGraphModel>
  </diagram>
</mxfile>
